<?xml version="1.0" encoding="UTF-8" standalone="no"?>
<!-- Created with Inkscape (http://www.inkscape.org/) -->

<svg
   width="62.721001mm"
   height="62.720928mm"
   viewBox="0 0 62.721001 62.720928"
   version="1.1"
   id="svg1234"
   inkscape:version="1.1.2 (b8e25be833, 2022-02-05)"
   sodipodi:docname="ixmp-logo-white.svg"
   inkscape:export-filename="C:\Users\laura\OneDrive\Desktop\MCM\New\messageix-community-logo-white.png"
   inkscape:export-xdpi="203.7283"
   inkscape:export-ydpi="203.7283"
   xmlns:inkscape="http://www.inkscape.org/namespaces/inkscape"
   xmlns:sodipodi="http://sodipodi.sourceforge.net/DTD/sodipodi-0.dtd"
   xmlns="http://www.w3.org/2000/svg"
   xmlns:svg="http://www.w3.org/2000/svg">
  <sodipodi:namedview
     id="namedview1236"
     pagecolor="#505050"
     bordercolor="#eeeeee"
     borderopacity="1"
     inkscape:pageshadow="0"
     inkscape:pageopacity="0"
     inkscape:pagecheckerboard="0"
     inkscape:document-units="mm"
     showgrid="false"
     inkscape:zoom="2.0737236"
     inkscape:cx="29.174573"
     inkscape:cy="165.64406"
     inkscape:window-width="958"
     inkscape:window-height="1008"
     inkscape:window-x="-7"
     inkscape:window-y="0"
     inkscape:window-maximized="0"
     inkscape:current-layer="layer1" />
  <defs
     id="defs1231" />
  <g
     inkscape:label="Layer 1"
     inkscape:groupmode="layer"
     id="layer1"
     transform="translate(-69.712061,-120.11273)">
    <path
       d="m 101.073,182.48161 c -1.074209,0 -2.083859,-0.41839 -2.843739,-1.17792 l -21.64045,-21.6408 5.32695,-5.32695 -0.25224,-0.24941 c -0.33867,-0.33479 -0.52493,-0.78176 -0.52493,-1.25766 0,-0.97543 0.79375,-1.76918 1.76953,-1.76918 0.47519,0 0.92216,0.18627 1.2573,0.52529 l 0.24941,0.25188 5.60917,-5.60916 c -1.75966,3.69429 -1.55963,8.03839 0.59126,11.58204 l 0.22683,0.37395 0.31715,-0.30057 c 0.50094,-0.47413 1.15429,-0.73554 1.83938,-0.73554 1.47744,0 2.67935,1.20191 2.67935,2.67899 0,0.65158 -0.23954,1.28094 -0.67381,1.77201 -0.0945,0.10654 -0.18591,0.19685 -0.28045,0.27657 l -0.29387,0.2473 6.377519,6.37752 c -0.2279,0.3817 -0.34749,0.81245 -0.34749,1.26259 0,1.3649 1.11019,2.47544 2.47474,2.47544 0.4505,0 0.88124,-0.11959 1.26294,-0.34748 l 4.56636,4.566 -4.84717,4.84717 c -0.75988,0.75953 -1.76953,1.17792 -2.84374,1.17792"
       style="fill:#00589d;fill-opacity:1;fill-rule:nonzero;stroke:none;stroke-width:0.352778"
       id="path193"
       inkscape:export-filename="C:\Users\laura\OneDrive\Desktop\MCM\path73.png"
       inkscape:export-xdpi="300"
       inkscape:export-ydpi="300" />
    <path
       d="m 104.26867,170.96363 -0.24589,0.19226 c -0.31503,0.24624 -0.69109,0.37642 -1.08796,0.37642 -0.97579,0 -1.76954,-0.79375 -1.76954,-1.76954 0,-0.39652 0.13018,-0.77293 0.37677,-1.08761 l 0.19191,-0.24624 -5.914319,-5.91432 c 1.63477,0.77682 3.43606,1.18428 5.257449,1.18428 2.20486,0 4.36527,-0.59302 6.24805,-1.71486 l 0.32385,-0.19296 -0.21379,-0.31045 c -0.30903,-0.44838 -0.47237,-0.97367 -0.47237,-1.518 0,-1.47708 1.20156,-2.67864 2.67865,-2.67864 0.53692,0 1.05515,0.15804 1.49789,0.4572 0.085,0.0572 0.17216,0.12594 0.27411,0.21625 l 0.24835,0.21978 6.15139,-6.15139 c 0.44803,0.393 1.02411,0.61243 1.62842,0.61243 1.3649,0 2.47509,-1.11055 2.47509,-2.47545 0,-0.6043 -0.21943,-1.18039 -0.61207,-1.62842 l 4.75157,-4.75156 4.84716,4.84716 c 1.56775,1.5681 1.56775,4.11904 0,5.68714 l -21.6408,21.64044 z"
       style="fill:#001e6b;fill-opacity:1;fill-rule:nonzero;stroke:none;stroke-width:0.352778"
       id="path201"
       inkscape:export-filename="C:\Users\laura\OneDrive\Desktop\MCM\path73.png"
       inkscape:export-xdpi="300"
       inkscape:export-ydpi="300" />
    <path
       d="m 71.242611,154.31725 c -1.56774,-1.5681 -1.56774,-4.11939 0,-5.68713 l 21.6408,-21.6408 5.12304,5.12304 0.24835,-0.21661 c 0.32244,-0.28116 0.73449,-0.43603 1.15994,-0.43603 0.976129,0 1.769879,0.79375 1.769879,1.76953 0,0.42545 -0.15487,0.83785 -0.43603,1.16029 l -0.21661,0.24835 5.79332,5.79332 c -1.63301,-0.77682 -3.42688,-1.18322 -5.25321,-1.18322 -2.155479,0 -4.274959,0.56868 -6.128809,1.6443 l -0.34572,0.20073 0.242,0.31821 c 0.35807,0.47131 0.54751,1.03081 0.54751,1.61784 0,1.47708 -1.20191,2.67934 -2.67899,2.67934 -0.59796,0 -1.16452,-0.19508 -1.63936,-0.56409 -0.0868,-0.067 -0.17004,-0.13723 -0.248,-0.21413 l -0.24942,-0.24765 -6.17149,6.17149 c -0.42757,-0.3242 -0.94615,-0.49989 -1.4919,-0.49989 -1.36454,0 -2.47473,1.1102 -2.47473,2.47474 0,0.5461 0.17533,1.06468 0.49988,1.49225 l -4.84328,4.84293 z"
       style="fill:#001e6b;fill-opacity:1;fill-rule:nonzero;stroke:none;stroke-width:0.352778"
       id="path209"
       inkscape:export-filename="C:\Users\laura\OneDrive\Desktop\MCM\path73.png"
       inkscape:export-xdpi="300"
       inkscape:export-ydpi="300" />
    <path
       d="m 112.11761,156.72333 c 1.68698,-3.55318 1.56386,-7.76958 -0.38135,-11.2328 l -0.20638,-0.36689 -0.32526,0.26741 c -0.47695,0.39194 -1.0802,0.60819 -1.69898,0.60819 -1.47743,0 -2.67899,-1.20227 -2.67899,-2.67935 0,-0.64876 0.23777,-1.276 0.66887,-1.76671 0.0667,-0.0759 0.13723,-0.14676 0.21202,-0.21414 l 0.27446,-0.2487 -6.50064,-6.50099 c 0.26529,-0.40252 0.40887,-0.87524 0.40887,-1.36031 0,-1.36455 -1.11054,-2.47474 -2.475439,-2.47474 -0.48507,0 -0.95744,0.14358 -1.35961,0.40887 l -4.67289,-4.67254 4.84716,-4.84717 c 0.75954,-0.75953 1.76919,-1.17757 2.843389,-1.17757 1.07421,0 2.08421,0.41804 2.84375,1.17757 l 21.64079,21.64045 -5.27543,5.27508 0.29492,0.24801 c 0.40322,0.33761 0.63429,0.83185 0.63429,1.35572 0,0.97614 -0.79375,1.76989 -1.76953,1.76989 -0.52423,0 -1.01847,-0.23107 -1.35608,-0.6343 l -0.24765,-0.29527 z"
       style="fill:#00589d;fill-opacity:1;fill-rule:nonzero;stroke:none;stroke-width:0.352778"
       id="path217"
       inkscape:export-filename="C:\Users\laura\OneDrive\Desktop\MCM\path73.png"
       inkscape:export-xdpi="300"
       inkscape:export-ydpi="300" />
    <path
       d="m 101.07748,163.18177 c -1.869719,0 -3.716159,-0.44802 -5.367509,-1.29855 0.38488,-0.5662 0.59337,-1.23541 0.59337,-1.92401 0,-1.89264 -1.53988,-3.43247 -3.43323,-3.43247 -0.73202,0 -1.4351,0.23175 -2.02036,0.66038 -1.97732,-3.52843 -1.99461,-7.81003 -0.0438,-11.35256 0.5334,0.32349 1.13771,0.49317 1.76883,0.49317 1.89336,0 3.43323,-1.5402 3.43323,-3.43317 0,-0.61877 -0.16369,-1.21247 -0.47625,-1.73916 1.6951,-0.9112 3.60186,-1.39063 5.539669,-1.39063 2.01542,0 3.98886,0.51575 5.73229,1.49541 -0.387,0.56761 -0.5969,1.23893 -0.5969,1.93 0,1.89263 1.53987,3.43282 3.43288,3.43282 0.65052,0 1.28799,-0.18662 1.83409,-0.53091 1.77694,3.43247 1.73849,7.56696 -0.10407,10.96345 -0.4886,-0.25682 -1.03223,-0.39088 -1.59173,-0.39088 -1.89265,0 -3.43253,1.5402 -3.43253,3.43318 0,0.56973 0.13935,1.12288 0.4064,1.61993 -1.72826,0.95848 -3.68265,1.464 -5.67408,1.464 z"
       style="fill:#ffffff;fill-opacity:1;fill-rule:nonzero;stroke:none;stroke-width:0.352775"
       id="path225"
       inkscape:export-filename="C:\Users\laura\OneDrive\Desktop\MCM\path73.png"
       inkscape:export-xdpi="300"
       inkscape:export-ydpi="300" />
    <path
       id="path197-9"
       style="fill:#ffffff;fill-opacity:1;fill-rule:nonzero;stroke:none;stroke-width:0.352773"
       d="m 101.0727,120.11273 c -1.119186,0 -2.239049,0.42674 -3.093338,1.28124 l -5.096554,5.09658 -21.889639,21.88965 c -1.708144,1.70807 -1.708144,4.47793 0,6.18605 l 5.096601,5.09671 21.890304,21.88957 c 0.853536,0.85413 1.97346,1.28113 3.092626,1.28113 1.11993,0 2.23847,-0.427 3.09281,-1.28113 l 5.09662,-5.09669 21.88976,-21.88959 c 1.70823,-1.70814 1.70823,-4.47799 0,-6.18605 l -5.09591,-5.09665 h -7.2e-4 l -21.88975,-21.88958 c -0.85434,-0.85415 -1.97321,-1.28124 -3.09281,-1.28124 z m 0,0.70541 c 0.98013,0 1.90115,0.38164 2.5942,1.0745 l 21.39106,21.39091 -4.75413,4.75339 -0.54407,0.54478 0.59028,0.49539 c 0.32277,0.27009 0.50774,0.66577 0.50774,1.08547 0,0.78117 -0.63543,1.41704 -1.41682,1.41704 -0.41947,0 -0.81482,-0.18517 -1.08554,-0.50789 l -0.49474,-0.59086 -0.54549,0.54476 -4.25145,4.25276 c 1.03445,-3.27768 0.69625,-6.90412 -1.02042,-9.96065 l -0.41238,-0.7346 -0.65077,0.53503 c -0.42013,0.34534 -0.93025,0.52824 -1.47503,0.52824 -0.62167,0 -1.20572,-0.24223 -1.64483,-0.68176 -0.43954,-0.43922 -0.68104,-1.02329 -0.68105,-1.64495 0,-0.56295 0.20646,-1.10766 0.58098,-1.53342 0.0568,-0.0636 0.11813,-0.12675 0.18378,-0.18711 l 0.54865,-0.49734 -0.52361,-0.52361 -6.04649,-6.04592 c 0.20845,-0.40007 0.32009,-0.84653 0.32009,-1.30292 0,-1.55929 -1.26865,-2.82798 -2.827916,-2.82798 -0.456492,0 -0.90349,0.11101 -1.303635,0.3195 l -4.230348,-4.23035 4.597864,-4.59791 c 0.693034,-0.69286 1.614195,-1.0745 2.594075,-1.0745 z m -8.189892,6.66978 4.640665,4.64074 0.465762,0.46565 0.496682,-0.43279 c 0.2586,-0.22551 0.588276,-0.34913 0.928827,-0.34913 0.780866,0 1.416916,0.6353 1.416916,1.41627 0,0.34044 -0.12419,0.67023 -0.34906,0.92889 l -0.43349,0.49662 0.46557,0.4657 4.36292,4.36218 c -1.22376,-0.38735 -2.50693,-0.58692 -3.80614,-0.58692 -2.217233,0 -4.39786,0.58491 -6.306036,1.69161 l -0.691671,0.40116 0.484147,0.63632 c 0.311512,0.40925 0.476296,0.89526 0.476296,1.40503 0,1.28264 -1.043915,2.32605 -2.326636,2.32605 -0.518218,0 -1.010496,-0.1695 -1.422916,-0.48945 -0.08782,-0.0679 -0.156831,-0.12825 -0.215377,-0.18641 l -0.498641,-0.4954 -0.497313,0.49734 -5.717782,5.71783 c -0.433213,-0.25974 -0.929006,-0.39862 -1.447222,-0.39862 -1.559275,0 -2.827935,1.2688 -2.827935,2.8279 0,0.51827 0.13793,1.01477 0.397206,1.448 l -4.38781,4.38846 -4.597281,-4.59731 c -0.69322,-0.6932 -1.07505,-1.61479 -1.07505,-2.59469 0,-0.98007 0.38183,-1.90126 1.07505,-2.59418 z m 8.131342,7.13332 6.45615,6.45555 -5.2e-4,7.2e-4 z m 0.0567,4.97925 h 6e-4 v 0.51656 c 1.83215,0 3.62741,0.4394 5.23779,1.27666 -0.29733,0.5485 -0.45538,1.16514 -0.45538,1.79626 -2.9e-4,1.0111 0.39399,1.96129 1.10873,2.67635 0.71515,0.71512 1.66559,1.10948 2.67719,1.10948 0.58584,0 1.16235,-0.13749 1.68226,-0.39522 1.5093,3.16286 1.46974,6.88525 -0.10969,10.01327 -0.45237,-0.18553 -0.93802,-0.28201 -1.43545,-0.28201 -1.01105,0 -1.96177,0.39358 -2.6764,1.10866 -0.71498,0.71504 -1.10868,1.66575 -1.10868,2.67705 0,0.5091 0.10119,1.00594 0.29576,1.46766 -1.60278,0.82834 -3.39035,1.2642 -5.2112,1.2642 -1.686304,0 -3.353245,-0.37569 -4.866664,-1.09226 0.290555,-0.54395 0.445297,-1.1537 0.445297,-1.77785 0,-2.0874 -1.697729,-3.78573 -3.785171,-3.78573 -0.671618,0 -1.32094,0.17669 -1.891718,0.50787 -1.684277,-3.25258 -1.695609,-7.1063 -0.0274,-10.36841 0.503393,0.24167 1.053318,0.36696 1.623819,0.36696 1.011028,0 1.961779,-0.39365 2.676356,-1.10872 0.715189,-0.71505 1.109362,-1.66523 1.109362,-2.67636 0,-0.55667 -0.120278,-1.09528 -0.351111,-1.59015 1.564213,-0.77859 3.300242,-1.18771 5.06166,-1.18771 z m 24.98577,4.68101 4.59728,4.59727 c 0.69291,0.6929 1.07448,1.61475 1.07448,2.59469 0,0.97977 -0.38157,1.90056 -1.07448,2.59353 l -21.3911,21.39083 -4.52345,-4.5234 -0.44141,-0.44144 -0.49268,0.38478 c -0.25184,0.19719 -0.55307,0.30104 -0.87016,0.30104 -0.78135,0 -1.41705,-0.63485 -1.41705,-1.41628 0,-0.31716 0.10461,-0.61865 0.30172,-0.87085 l 0.3847,-0.49205 -0.44134,-0.44137 -4.496555,-4.49648 c 1.226972,0.38872 2.513978,0.58957 3.810815,0.58957 2.26837,0 4.49075,-0.61051 6.42866,-1.76483 l 0.64753,-0.38586 -0.42761,-0.62055 c -0.26838,-0.38958 -0.41038,-0.84464 -0.41038,-1.31745 0,-0.62164 0.24233,-1.20539 0.68183,-1.6449 0.43928,-0.43919 1.0229,-0.68174 1.64414,-0.68174 0.46642,0 0.91634,0.13715 1.30032,0.39652 0.0725,0.049 0.14762,0.10858 0.23785,0.18841 l 0.49741,0.43947 0.46893,-0.46917 5.69678,-5.69667 c 0.46608,0.32041 1.02124,0.49611 1.5994,0.49611 1.55927,0 2.82805,-1.26875 2.82805,-2.8281 0,-0.57807 -0.17618,-1.13361 -0.49612,-1.59938 z m -36.983162,3.3958 c -1.083446,3.41237 -0.668537,7.17008 1.240329,10.31501 l 0.45383,0.74771 0.634368,-0.60146 c 0.434944,-0.41179 1.002625,-0.63823 1.597392,-0.63823 1.282707,0 2.326033,1.04322 2.326033,2.32593 0,0.56524 -0.207493,1.11128 -0.584975,1.53807 -0.08202,0.0936 -0.162251,0.17201 -0.243733,0.24045 l -0.587465,0.49536 0.543253,0.54291 5.92142,5.9213 c -0.1753,0.37171 -0.26683,0.778 -0.26683,1.19817 0,1.55929 1.26868,2.82733 2.82802,2.82733 0.42059,0 0.82566,-0.0908 1.19764,-0.26621 l 4.13272,4.1322 -4.59853,4.59796 c -0.69304,0.69286 -1.61409,1.07445 -2.59419,1.07445 -0.97992,0 -1.900513,-0.38159 -2.593407,-1.07445 l -21.391606,-21.39084 4.82719,-4.82729 0.501291,-0.50127 -0.503925,-0.49867 c -0.271302,-0.26837 -0.420935,-0.62652 -0.420935,-1.00724 0,-0.78092 0.635882,-1.41687 1.416936,-1.41687 0.38101,0 0.738704,0.14959 1.007191,0.42096 l 0.498666,0.50393 0.501299,-0.50133 z m 2.271211,9.61216 c -0.0128,0.007 -0.02451,0.0192 -0.03691,0.0289 v -0.003 c 0.0125,-0.007 0.0234,-0.0181 0.03691,-0.0255 z m 19.798911,0.0478 c 0.0659,0.0324 0.13234,0.0673 0.19629,0.10587 -9.9e-4,0.001 -9.9e-4,0.003 -0.002,0.004 -0.0618,-0.0417 -0.12893,-0.0742 -0.19358,-0.11098 z m -20.226513,0.25095 v 0.0392 c -0.004,-0.007 -0.008,-0.0189 -0.0155,-0.028 0.004,-0.003 0.008,-0.005 0.0155,-0.008 z m 4.668413,3.81592 c -0.002,0.003 -0.004,0.007 -0.006,0.009 h -6.11e-4 c 0.002,-0.003 0.005,-0.007 0.007,-0.009 z m 11.44287,0.0771 c 0.0391,0.0657 0.0727,0.13576 0.1172,0.19893 -0.001,0.001 -0.003,0.001 -0.004,0.002 -0.0397,-0.065 -0.0767,-0.13287 -0.11154,-0.20162 z m -6.18487,7.91924 c -0.0203,0.11781 -0.0295,0.23854 -0.0295,0.36171 0,0.0733 0.002,0.14527 0.008,0.21675 -0.006,-0.0709 -0.009,-0.14351 -0.009,-0.21675 0,-0.12325 0.008,-0.24439 0.0315,-0.36171 z" />
  </g>
</svg>
